<svg width="16" height="16" viewBox="0 0 16 16" fill="none" xmlns="http://www.w3.org/2000/svg">
<g id="users_svgrepo.com">
<path id="Vector" fill-rule="evenodd" clip-rule="evenodd" d="M3.625 6.4375C3.625 4.8842 4.8842 3.625 6.4375 3.625C7.99081 3.625 9.25 4.8842 9.25 6.4375C9.25 7.99081 7.99081 9.25 6.4375 9.25C4.8842 9.25 3.625 7.99081 3.625 6.4375Z" fill="#0B85F5"/>
<path id="Vector_2" d="M9.47949 8.0395C9.45105 8.09337 9.46312 8.16056 9.51205 8.19681C9.87555 8.46588 10.3254 8.625 10.8123 8.625C12.0204 8.625 12.9998 7.64562 12.9998 6.4375C12.9998 5.22938 12.0204 4.25 10.8123 4.25C10.3254 4.25 9.87555 4.40913 9.51205 4.67821C9.46312 4.71446 9.45105 4.78161 9.47949 4.83549C9.73193 5.31387 9.8748 5.859 9.8748 6.4375C9.8748 7.016 9.73193 7.56113 9.47949 8.0395Z" fill="#0B85F5"/>
<path id="Vector_3" fill-rule="evenodd" clip-rule="evenodd" d="M3.40066 10.3121C4.17088 9.97775 5.18147 9.875 6.43741 9.875C7.69444 9.875 8.70575 9.97794 9.47625 10.313C10.3156 10.6779 10.8257 11.2996 11.0931 12.1772C11.2184 12.5886 10.9094 13 10.4836 13H2.39245C1.96612 13 1.65647 12.588 1.78217 12.1759C2.0499 11.2981 2.5608 10.6766 3.40066 10.3121Z" fill="#0B85F5"/>
<path id="Vector_4" d="M9.76142 9.27321C9.50267 9.28928 9.48748 9.6369 9.72523 9.74028C10.3767 10.0236 10.8673 10.4407 11.2191 10.973C11.5078 11.4098 11.9561 11.7505 12.4797 11.7505H13.5925C14.0345 11.7505 14.357 11.3113 14.2015 10.8822C14.1926 10.8575 14.1833 10.833 14.1737 10.8087C13.9597 10.2683 13.5929 9.87053 13.0497 9.61696C12.5398 9.3789 11.9014 9.28065 11.1494 9.25096L11.137 9.25046H11.1247C10.6817 9.25046 10.219 9.24478 9.76142 9.27321Z" fill="#0B85F5"/>
</g>
</svg>
