<svg width="34" height="32" viewBox="0 0 34 32" fill="none" xmlns="http://www.w3.org/2000/svg">
<g id="Icon material-camera-alt">
<path id="Trac&#195;&#169; 2158" d="M22.3664 17.6715C22.3664 18.7329 22.0516 19.7705 21.4619 20.6531C20.8722 21.5357 20.034 22.2236 19.0534 22.6298C18.0727 23.036 16.9937 23.1422 15.9526 22.9352C14.9115 22.7281 13.9553 22.2169 13.2047 21.4664C12.4542 20.7158 11.943 19.7595 11.7359 18.7185C11.5289 17.6774 11.6351 16.5984 12.0413 15.6177C12.4475 14.637 13.1354 13.7989 14.018 13.2092C14.9005 12.6194 15.9382 12.3047 16.9996 12.3047C18.423 12.3047 19.788 12.8701 20.7945 13.8766C21.801 14.8831 22.3664 16.2481 22.3664 17.6715Z" fill="white"/>
<path id="Trac&#195;&#169; 2159" d="M11.9689 0.900391L8.89946 4.25435H3.58248C2.69368 4.25714 1.84209 4.6115 1.21368 5.24005C0.585273 5.8686 0.231103 6.72027 0.228516 7.60907V27.7351C0.231302 28.6238 0.58556 29.4753 1.21395 30.1037C1.84233 30.732 2.69381 31.0863 3.58248 31.0891H30.4172C31.3059 31.0863 32.1573 30.732 32.7857 30.1037C33.4141 29.4753 33.7684 28.6238 33.7712 27.7351V7.60907C33.7686 6.72027 33.4144 5.8686 32.786 5.24005C32.1576 4.6115 31.306 4.25714 30.4172 4.25435H25.101L22.0315 0.900391H11.9689ZM17.0006 26.0574C15.342 26.0575 13.7207 25.5659 12.3416 24.6445C10.9624 23.7232 9.88752 22.4136 9.25271 20.8813C8.61791 19.349 8.45173 17.6629 8.77521 16.0362C9.09869 14.4095 9.89729 12.9153 11.07 11.7424C12.2427 10.5696 13.7369 9.77086 15.3636 9.44724C16.9903 9.12362 18.6764 9.28964 20.2087 9.9243C21.741 10.559 23.0507 11.6338 23.9722 13.0128C24.8937 14.3918 25.3855 16.0132 25.3855 17.6717C25.3847 19.8955 24.501 22.028 22.9285 23.6004C21.3561 25.1728 19.2244 26.0566 17.0006 26.0574Z" fill="white"/>
</g>
</svg>
