<svg width="18" height="18" viewBox="0 0 18 18" fill="none" xmlns="http://www.w3.org/2000/svg">
<g id="Frame 427321201">
<path id="Vector" d="M11.7218 18.0002C12.8496 18.0002 13.8174 17.941 14.6259 17.7612C15.4448 17.5793 16.1547 17.262 16.7083 16.7083C17.262 16.1547 17.5793 15.4448 17.7612 14.6259C17.941 13.8174 18.0002 12.8496 18.0002 11.7218V9.0002C18.0002 8.00606 17.1943 7.2002 16.2002 7.2002H9.0002C8.00606 7.2002 7.2002 8.00606 7.2002 9.0002V16.2002C7.2002 17.1943 8.00606 18.0002 9.0002 18.0002H11.7218Z" fill="#5F6D7E"/>
<path id="Vector_2" d="M0 11.7218C0 12.8496 0.0592561 13.8174 0.238968 14.6259C0.420948 15.4448 0.738189 16.1547 1.29189 16.7083C1.84559 17.262 2.5554 17.5793 3.37423 17.7612C3.45265 17.7786 3.53147 17.795 3.6106 17.8103C4.58666 17.9988 5.4 17.1727 5.4 16.1786V9.0002C5.4 8.00606 4.59411 7.2002 3.6 7.2002H1.8C0.805887 7.2002 0 8.00606 0 9.0002V11.7218Z" fill="#5F6D7E"/>
<path id="Vector_3" d="M6.27833 0C5.15051 0 4.18278 0.0592561 3.37416 0.238968C2.55532 0.420948 1.84551 0.738189 1.29181 1.29189C0.738115 1.84559 0.420874 2.5554 0.238894 3.37423C0.223954 3.44147 0.209896 3.50893 0.196693 3.57658C0.00375068 4.5654 0.844963 5.4 1.85242 5.4H16.1784C17.1725 5.4 17.9986 4.58666 17.8101 3.6106C17.7948 3.53147 17.7784 3.45265 17.761 3.37423C17.5789 2.5554 17.2618 1.84559 16.708 1.29189C16.1543 0.738189 15.4445 0.420948 14.6257 0.238968C13.817 0.0592561 12.8493 0 11.7216 0H6.27833Z" fill="#5F6D7E"/>
</g>
</svg>
