<svg width="20" height="21" viewBox="0 0 20 21" fill="none" xmlns="http://www.w3.org/2000/svg">
<g id="delete_svgrepo.com">
<path id="Vector" d="M4.79567 17.4028L3.33317 7.16699H16.6665L15.204 17.4028C15.1472 17.8 14.9491 18.1633 14.646 18.4262C14.3429 18.689 13.9552 18.8337 13.554 18.8337H6.44567C6.04448 18.8337 5.65675 18.689 5.35365 18.4262C5.05056 18.1633 4.85244 17.8 4.79567 17.4028ZM17.4998 3.83366H13.3332V3.00033C13.3332 2.77931 13.2454 2.56735 13.0891 2.41107C12.9328 2.25479 12.7209 2.16699 12.4998 2.16699H7.49984C7.27882 2.16699 7.06686 2.25479 6.91058 2.41107C6.7543 2.56735 6.6665 2.77931 6.6665 3.00033V3.83366H2.49984C2.27882 3.83366 2.06686 3.92146 1.91058 4.07774C1.7543 4.23402 1.6665 4.44598 1.6665 4.66699C1.6665 4.88801 1.7543 5.09997 1.91058 5.25625C2.06686 5.41253 2.27882 5.50033 2.49984 5.50033H17.4998C17.7208 5.50033 17.9328 5.41253 18.0891 5.25625C18.2454 5.09997 18.3332 4.88801 18.3332 4.66699C18.3332 4.44598 18.2454 4.23402 18.0891 4.07774C17.9328 3.92146 17.7208 3.83366 17.4998 3.83366Z" fill="#DE5576"/>
</g>
</svg>
