<svg width="14" height="14" viewBox="0 0 14 14" fill="none" xmlns="http://www.w3.org/2000/svg">
<g id="Frame 427321203">
<g id="Navigation / House_02">
<path id="Vector" d="M1 6.72339V10.6504C1 11.4728 1 11.8843 1.16349 12.1985C1.3073 12.4748 1.5366 12.6993 1.81885 12.8401C2.1394 13 2.55924 13 3.39768 13H10.6023C11.4408 13 11.86 13 12.1806 12.8401C12.4628 12.6993 12.6929 12.4748 12.8366 12.1985C13 11.8846 13 11.4738 13 10.6529V6.72339C13 6.33106 12.9996 6.13478 12.951 5.95217C12.9078 5.7904 12.8369 5.63728 12.741 5.49892C12.6327 5.34279 12.4822 5.21332 12.1806 4.95495L8.58055 1.87095C8.0206 1.39124 7.74062 1.15151 7.42555 1.06029C7.1479 0.979904 6.85195 0.979904 6.5743 1.06029C6.25945 1.15145 5.97985 1.39095 5.42077 1.86993L1.81958 4.95495C1.51798 5.21332 1.36753 5.34279 1.25927 5.49892C1.16334 5.63728 1.09191 5.7904 1.04873 5.95217C1 6.13478 1 6.33106 1 6.72339Z" stroke="white" stroke-width="2" stroke-linecap="round" stroke-linejoin="round"/>
</g>
</g>
</svg>
