<svg width="22" height="22" viewBox="0 0 22 22" fill="none" xmlns="http://www.w3.org/2000/svg">
<g id="Frame 427321203">
<g id="Navigation / House_02">
<path id="Vector" d="M2 10.5851V16.4755C2 17.7092 2 18.3265 2.24524 18.7978C2.46095 19.2123 2.8049 19.549 3.22828 19.7601C3.7091 20 4.33886 20 5.59652 20H16.4035C17.6611 20 18.29 20 18.7708 19.7601C19.1942 19.549 19.5393 19.2123 19.755 18.7978C20 18.3269 20 17.7107 20 16.4794V10.5851C20 9.99659 19.9994 9.70217 19.9264 9.42825C19.8616 9.1856 19.7553 8.95592 19.6114 8.74838C19.449 8.51418 19.2233 8.31998 18.7708 7.93243L13.3708 3.30642C12.5309 2.58687 12.1109 2.22727 11.6383 2.09043C11.2218 1.96986 10.7779 1.96986 10.3614 2.09043C9.88917 2.22717 9.46977 2.58643 8.63115 3.30489L3.22937 7.93243C2.77697 8.31998 2.55129 8.51418 2.38891 8.74838C2.24501 8.95592 2.13787 9.1856 2.07309 9.42825C2 9.70217 2 9.99659 2 10.5851Z" stroke="#1D7A8C" stroke-width="3" stroke-linecap="round" stroke-linejoin="round"/>
</g>
</g>
</svg>
