<svg width="16" height="17" viewBox="0 0 16 17" fill="none" xmlns="http://www.w3.org/2000/svg">
<g id="eye_svgrepo.com" clip-path="url(#clip0_466_11080)">
<path id="Vector" d="M8 0.5C12.4187 0.5 16 4.08125 16 8.5C16 12.9187 12.4187 16.5 8 16.5C3.58125 16.5 0 12.9156 0 8.5C0 4.08125 3.58125 0.5 8 0.5Z" fill="#E5E4DF"/>
<path id="Vector_2" d="M8 3C11.0375 3 13.5 5.4625 13.5 8.5C13.5 11.5375 11.0375 14 8 14C4.9625 14 2.5 11.5375 2.5 8.5C2.5 5.4625 4.9625 3 8 3Z" fill="#00B1FF"/>
<path id="Vector_3" d="M8 5.5C9.65625 5.5 11 6.84375 11 8.5C11 10.1562 9.65625 11.5 8 11.5C6.34375 11.5 5 10.1562 5 8.5C5 6.84375 6.34375 5.5 8 5.5Z" fill="#2B3B47"/>
<path id="Vector_4" d="M10.2471 5.5C10.9377 5.5 11.4971 6.05937 11.4971 6.75C11.4971 7.44062 10.9377 8 10.2471 8C9.55645 8 8.99707 7.44062 8.99707 6.75C8.99707 6.05937 9.55957 5.5 10.2471 5.5Z" fill="#D4EDF6"/>
<path id="Vector_5" d="M10.9127 7.80312C10.7096 6.95 10.1471 6.24062 9.39082 5.84375C9.1502 6.07188 8.99707 6.39062 8.99707 6.75C8.99707 7.44062 9.55645 8 10.2471 8C10.4939 7.99688 10.7221 7.925 10.9127 7.80312Z" fill="#D6DBDE"/>
</g>
<defs>
<clipPath id="clip0_466_11080">
<rect width="16" height="16" fill="white" transform="translate(0 0.5)"/>
</clipPath>
</defs>
</svg>
