<svg width="16" height="16" viewBox="0 0 16 16" fill="none" xmlns="http://www.w3.org/2000/svg">
<g id="Frame 427321202">
<path id="Vector" d="M10 8C10 7.44771 10.4477 7 11 7C11.5523 7 12 7.44771 12 8C12 8.55229 11.5523 9 11 9C10.4477 9 10 8.55229 10 8Z" fill="white"/>
<path id="Vector_2" d="M5 9C5.55229 9 6 8.55229 6 8C6 7.44771 5.55229 7 5 7C4.44771 7 4 7.44771 4 8C4 8.55229 4.44771 9 5 9Z" fill="white"/>
<path id="Vector_3" fill-rule="evenodd" clip-rule="evenodd" d="M2.02513 2.02513C1 3.05025 1 4.70017 1 8C1 11.2998 1 12.9498 2.02513 13.9748C3.05025 15 4.70017 15 8 15C11.2998 15 12.9498 15 13.9748 13.9748C15 12.9498 15 11.2998 15 8C15 4.70017 15 3.05025 13.9748 2.02513C12.9498 1 11.2998 1 8 1C4.70017 1 3.05025 1 2.02513 2.02513ZM8.88263 9.225C8.65625 8.87143 8.525 8.45101 8.525 8C8.525 6.74357 9.54357 5.725 10.8 5.725C12.0564 5.725 13.075 6.74357 13.075 8C13.075 9.25643 12.0564 10.275 10.8 10.275H5.2C3.94355 10.275 2.925 9.25643 2.925 8C2.925 6.74357 3.94355 5.725 5.2 5.725C6.45645 5.725 7.475 6.74357 7.475 8C7.475 8.45101 7.34375 8.87143 7.11737 9.225H8.88263Z" fill="white"/>
</g>
</svg>
