<svg width="12" height="12" viewBox="0 0 12 12" fill="none" xmlns="http://www.w3.org/2000/svg">
<g id="Frame 427321201">
<path id="Vector" d="M7.8142 12.0008C8.56607 12.0008 9.21124 11.9613 9.75028 11.8415C10.2962 11.7202 10.7694 11.5087 11.1386 11.1395C11.5077 10.7704 11.7192 10.2972 11.8405 9.75126C11.9603 9.21222 11.9998 8.56704 11.9998 7.81518V6.00078C11.9998 5.33802 11.4626 4.80078 10.7998 4.80078H5.9998C5.33704 4.80078 4.7998 5.33802 4.7998 6.00078V10.8008C4.7998 11.4635 5.33704 12.0008 5.9998 12.0008H7.8142Z" fill="#5F6D7E"/>
<path id="Vector_2" d="M0 7.81518C0 8.56704 0.0395041 9.21222 0.159312 9.75126C0.280632 10.2972 0.492126 10.7704 0.861258 11.1395C1.23039 11.5087 1.7036 11.7202 2.24949 11.8415C2.30177 11.8531 2.35431 11.864 2.40707 11.8742C3.05777 11.9999 3.6 11.4491 3.6 10.7864V6.00078C3.6 5.33802 3.06274 4.80078 2.4 4.80078H1.2C0.537258 4.80078 0 5.33802 0 6.00078V7.81518Z" fill="#5F6D7E"/>
<path id="Vector_3" d="M4.18571 0C3.43384 0 2.78869 0.0395041 2.2496 0.159312C1.70371 0.280632 1.2305 0.492126 0.861371 0.861258C0.492239 1.23039 0.280745 1.7036 0.159425 2.24949C0.149465 2.29432 0.140093 2.33929 0.131291 2.38439C0.00266322 3.0436 0.563471 3.6 1.23511 3.6H10.7857C11.4485 3.6 11.9992 3.05777 11.8735 2.40707C11.8633 2.35431 11.8524 2.30177 11.8408 2.24949C11.7195 1.7036 11.508 1.23039 11.1388 0.861258C10.7697 0.492126 10.2965 0.280632 9.75061 0.159312C9.21151 0.0395041 8.56639 0 7.81453 0H4.18571Z" fill="#5F6D7E"/>
</g>
</svg>
