<svg width="18" height="16" viewBox="0 0 18 16" fill="none" xmlns="http://www.w3.org/2000/svg">
<path id="Vector" fill-rule="evenodd" clip-rule="evenodd" d="M0 6.17321C0 4.01238 5.74925e-08 2.93197 0.420521 2.10665C0.790431 1.38067 1.38067 0.790431 2.10665 0.420521C2.93197 -1.72477e-07 4.01238 0 6.17321 0H11.1889C13.3498 0 14.4302 -1.72477e-07 15.2555 0.420521C15.9815 0.790431 16.5717 1.38067 16.9416 2.10665C17.3621 2.93197 17.3621 4.01238 17.3621 6.17321V7.33068C17.3621 9.4915 17.3621 10.5719 16.9416 11.3973C16.5717 12.1232 15.9815 12.7134 15.2555 13.0833C14.4302 13.5039 13.3498 13.5039 11.1889 13.5039H4.25779C4.00197 13.5039 3.75663 13.6056 3.57574 13.7864L1.64662 15.7155C1.03897 16.3232 0 15.8928 0 15.0335V13.5039V8.68107V6.17321ZM5.78738 3.85825C5.25467 3.85825 4.82282 4.29011 4.82282 4.82282C4.82282 5.35553 5.25467 5.78738 5.78738 5.78738H11.5748C12.1075 5.78738 12.5393 5.35553 12.5393 4.82282C12.5393 4.29011 12.1075 3.85825 11.5748 3.85825H5.78738ZM5.78738 7.71651C5.25467 7.71651 4.82282 8.14834 4.82282 8.68107C4.82282 9.2138 5.25467 9.64563 5.78738 9.64563H8.68107C9.2138 9.64563 9.64563 9.2138 9.64563 8.68107C9.64563 8.14834 9.2138 7.71651 8.68107 7.71651H5.78738Z" fill="#5F6D7E"/>
</svg>
