<svg width="16" height="16" viewBox="0 0 16 16" fill="none" xmlns="http://www.w3.org/2000/svg">
<g id="log-out_svgrepo.com">
<g id="Interface / Log_Out">
<path id="Vector" d="M8.00033 10.0003L10.0003 8.00033M10.0003 8.00033L8.00033 6.00033M10.0003 8.00033H2.66699M6.00033 4.83272V4.80046C6.00033 4.05372 6.00033 3.68007 6.14565 3.39486C6.27348 3.14397 6.47731 2.94015 6.72819 2.81232C7.01339 2.66699 7.38706 2.66699 8.13379 2.66699H11.2005C11.9472 2.66699 12.3201 2.66699 12.6053 2.81232C12.8561 2.94015 13.0607 3.14397 13.1885 3.39486C13.3337 3.67979 13.3337 4.05299 13.3337 4.79827V11.2027C13.3337 11.948 13.3337 12.3207 13.1885 12.6056C13.0607 12.8565 12.8561 13.0607 12.6053 13.1885C12.3203 13.3337 11.9477 13.3337 11.2024 13.3337H8.13159C7.38633 13.3337 7.01313 13.3337 6.72819 13.1885C6.47731 13.0607 6.27348 12.8563 6.14565 12.6054C6.00033 12.3202 6.00033 11.9471 6.00033 11.2003V11.167" stroke="white" stroke-width="1.5" stroke-linecap="round" stroke-linejoin="round"/>
</g>
</g>
</svg>
