<svg width="32" height="40" viewBox="0 0 32 40" fill="none" xmlns="http://www.w3.org/2000/svg">
<path id="Vector" d="M16 20C17.1 20 18.042 19.608 18.826 18.824C19.6087 18.0413 20 17.1 20 16C20 14.9 19.6087 13.958 18.826 13.174C18.042 12.3913 17.1 12 16 12C14.9 12 13.9587 12.3913 13.176 13.174C12.392 13.958 12 14.9 12 16C12 17.1 12.392 18.0413 13.176 18.824C13.9587 19.608 14.9 20 16 20ZM16 39.25C15.7333 39.25 15.4667 39.2 15.2 39.1C14.9333 39 14.7 38.8667 14.5 38.7C9.63333 34.4 6 30.4087 3.6 26.726C1.2 23.042 0 19.6 0 16.4C0 11.4 1.60867 7.41667 4.826 4.45C8.042 1.48333 11.7667 0 16 0C20.2333 0 23.958 1.48333 27.174 4.45C30.3913 7.41667 32 11.4 32 16.4C32 19.6 30.8 23.042 28.4 26.726C26 30.4087 22.3667 34.4 17.5 38.7C17.3 38.8667 17.0667 39 16.8 39.1C16.5333 39.2 16.2667 39.25 16 39.25Z" fill="#ED8074"/>
</svg>
