<svg width="16" height="16" viewBox="0 0 16 16" fill="none" xmlns="http://www.w3.org/2000/svg">
<g id="star-1_svgrepo.com">
<path id="Vector" opacity="0.4" d="M3.82641 10.6673C3.89974 10.3407 3.76641 9.87398 3.53308 9.64065L1.91308 8.02065C1.40641 7.51398 1.20641 6.97398 1.35308 6.50732C1.50641 6.04065 1.97974 5.72065 2.68641 5.60065L4.76641 5.25398C5.06641 5.20065 5.43308 4.93398 5.57308 4.66065L6.71976 2.36065C7.0531 1.70065 7.50643 1.33398 7.99976 1.33398C8.4931 1.33398 8.94643 1.70065 9.27976 2.36065L10.4264 4.66065C10.5131 4.83398 10.6931 5.00065 10.8864 5.11398L3.70641 12.294C3.61308 12.3873 3.45308 12.3007 3.47974 12.1673L3.82641 10.6673Z" fill="#8A262E"/>
<path id="Vector_2" d="M12.4672 9.63928C12.2272 9.87928 12.0939 10.3393 12.1739 10.6659L12.6339 12.6726C12.8272 13.5059 12.7072 14.1326 12.2939 14.4326C12.1272 14.5526 11.9272 14.6126 11.6939 14.6126C11.3539 14.6126 10.9539 14.4859 10.5139 14.2259L8.56053 13.0659C8.25387 12.8859 7.7472 12.8859 7.44053 13.0659L5.48719 14.2259C4.74719 14.6593 4.11385 14.7326 3.70719 14.4326C3.55385 14.3193 3.44052 14.1659 3.36719 13.9659L11.4739 5.85928C11.7805 5.55261 12.2139 5.41261 12.6339 5.48595L13.3072 5.59928C14.0139 5.71928 14.4872 6.03928 14.6405 6.50595C14.7872 6.97261 14.5872 7.51261 14.0805 8.01928L12.4672 9.63928Z" fill="#8A262E"/>
</g>
</svg>
