<svg width="12" height="12" viewBox="0 0 12 12" fill="none" xmlns="http://www.w3.org/2000/svg">
<g id="users_svgrepo.com">
<path id="Vector" fill-rule="evenodd" clip-rule="evenodd" d="M2.5 4.75C2.5 3.50736 3.50736 2.5 4.75 2.5C5.99265 2.5 7 3.50736 7 4.75C7 5.99265 5.99265 7 4.75 7C3.50736 7 2.5 5.99265 2.5 4.75Z" fill="white"/>
<path id="Vector_2" d="M7.18398 6.0316C7.16123 6.0747 7.17088 6.12845 7.21003 6.15745C7.50083 6.3727 7.86068 6.5 8.25023 6.5C9.21673 6.5 10.0002 5.7165 10.0002 4.75C10.0002 3.7835 9.21673 3 8.25023 3C7.86068 3 7.50083 3.1273 7.21003 3.34257C7.17088 3.37157 7.16123 3.42529 7.18398 3.46839C7.38593 3.85109 7.50023 4.2872 7.50023 4.75C7.50023 5.2128 7.38593 5.6489 7.18398 6.0316Z" fill="white"/>
<path id="Vector_3" fill-rule="evenodd" clip-rule="evenodd" d="M2.32033 7.84965C2.93651 7.5822 3.74498 7.5 4.74973 7.5C5.75536 7.5 6.56441 7.58235 7.18081 7.8504C7.85226 8.14235 8.26036 8.63965 8.47426 9.3418C8.57451 9.6709 8.32731 10 7.98666 10H1.51376C1.1727 10 0.924981 9.6704 1.02554 9.3407C1.23973 8.63845 1.64845 8.1413 2.32033 7.84965Z" fill="white"/>
<path id="Vector_4" d="M7.40943 7.01857C7.20243 7.03142 7.19028 7.30952 7.38048 7.39222C7.90168 7.61887 8.29413 7.95252 8.57558 8.37837C8.80653 8.72782 9.16518 9.00037 9.58403 9.00037H10.4743C10.8279 9.00037 11.0859 8.64902 10.9615 8.30577C10.9544 8.28602 10.9469 8.26642 10.9392 8.24697C10.768 7.81467 10.4746 7.49642 10.0401 7.29357C9.63213 7.10312 9.12143 7.02452 8.51978 7.00077L8.50988 7.00037H8.50003C8.14563 7.00037 7.77548 6.99582 7.40943 7.01857Z" fill="white"/>
</g>
</svg>
